<svg width="191" height="32" viewBox="0 0 191 32" fill="none" xmlns="http://www.w3.org/2000/svg">
<path d="M25 22.25V13.625L13.75 19.75L0 12.25L13.75 4.75L27.5 12.25V22.25H25V22.25M13.75 27.25L5 22.5V16.25L13.75 21L22.5 16.25V22.5L13.75 27.25V27.25" fill="#4648D4"/>
<path d="M37.084 26V8.12H43.948C45.18 8.12 46.272 8.336 47.224 8.768C48.176 9.2 48.924 9.84 49.468 10.688C50.012 11.536 50.284 12.584 50.284 13.832C50.284 15.048 50.008 16.08 49.456 16.928C48.904 17.776 48.152 18.42 47.2 18.86C46.248 19.3 45.164 19.52 43.948 19.52H40.804V26H37.084ZM40.804 16.28H43.972C44.5 16.28 44.956 16.176 45.34 15.968C45.724 15.76 46.024 15.472 46.24 15.104C46.456 14.736 46.564 14.312 46.564 13.832C46.564 13.336 46.456 12.904 46.24 12.536C46.024 12.168 45.724 11.88 45.34 11.672C44.956 11.464 44.5 11.36 43.972 11.36H40.804V16.28ZM52.396 26V12.896H55.756V16.04L55.516 15.584C55.804 14.48 56.28 13.732 56.944 13.34C57.608 12.948 58.396 12.752 59.308 12.752H60.076V15.872H58.948C58.068 15.872 57.356 16.14 56.812 16.676C56.268 17.212 55.996 17.968 55.996 18.944V26H52.396ZM68.164 26.288C66.868 26.288 65.688 25.992 64.624 25.4C63.56 24.808 62.712 23.996 62.08 22.964C61.448 21.932 61.132 20.76 61.132 19.448C61.132 18.12 61.448 16.944 62.08 15.92C62.712 14.896 63.56 14.088 64.624 13.496C65.688 12.904 66.868 12.608 68.164 12.608C69.46 12.608 70.636 12.904 71.692 13.496C72.748 14.088 73.592 14.896 74.224 15.92C74.856 16.944 75.172 18.12 75.172 19.448C75.172 20.76 74.856 21.932 74.224 22.964C73.592 23.996 72.748 24.808 71.692 25.4C70.636 25.992 69.46 26.288 68.164 26.288ZM68.164 23.048C68.82 23.048 69.392 22.896 69.88 22.592C70.368 22.288 70.752 21.864 71.032 21.32C71.312 20.776 71.452 20.152 71.452 19.448C71.452 18.744 71.312 18.124 71.032 17.588C70.752 17.052 70.368 16.628 69.88 16.316C69.392 16.004 68.82 15.848 68.164 15.848C67.508 15.848 66.932 16.004 66.436 16.316C65.94 16.628 65.552 17.052 65.272 17.588C64.992 18.124 64.852 18.744 64.852 19.448C64.852 20.152 64.992 20.776 65.272 21.32C65.552 21.864 65.94 22.288 66.436 22.592C66.932 22.896 67.508 23.048 68.164 23.048ZM78.628 26V16.016H76.42V12.896H78.628V12.704C78.628 11.664 78.832 10.784 79.24 10.064C79.648 9.344 80.236 8.792 81.004 8.408C81.772 8.024 82.7 7.832 83.788 7.832C83.996 7.832 84.22 7.844 84.46 7.868C84.7 7.892 84.9 7.92 85.06 7.952V11.024C84.9 10.992 84.76 10.972 84.64 10.964C84.52 10.956 84.396 10.952 84.268 10.952C83.596 10.952 83.088 11.1 82.744 11.396C82.4 11.692 82.228 12.128 82.228 12.704V12.896H85.036V16.016H82.228V26H78.628ZM92.956 26.288C91.564 26.288 90.356 25.98 89.332 25.364C88.308 24.748 87.516 23.92 86.956 22.88C86.396 21.84 86.116 20.688 86.116 19.424C86.116 18.112 86.408 16.944 86.992 15.92C87.576 14.896 88.364 14.088 89.356 13.496C90.348 12.904 91.468 12.608 92.716 12.608C93.756 12.608 94.676 12.772 95.476 13.1C96.276 13.428 96.952 13.888 97.504 14.48C98.056 15.072 98.476 15.756 98.764 16.532C99.052 17.308 99.196 18.152 99.196 19.064C99.196 19.32 99.184 19.572 99.16 19.82C99.136 20.068 99.092 20.28 99.028 20.456H89.212V17.816H96.988L95.284 19.064C95.444 18.376 95.436 17.764 95.26 17.228C95.084 16.692 94.776 16.268 94.336 15.956C93.896 15.644 93.356 15.488 92.716 15.488C92.092 15.488 91.556 15.64 91.108 15.944C90.66 16.248 90.324 16.696 90.1 17.288C89.876 17.88 89.788 18.6 89.836 19.448C89.772 20.184 89.86 20.832 90.1 21.392C90.34 21.952 90.708 22.388 91.204 22.7C91.7 23.012 92.3 23.168 93.004 23.168C93.644 23.168 94.192 23.04 94.648 22.784C95.104 22.528 95.46 22.176 95.716 21.728L98.596 23.096C98.34 23.736 97.936 24.296 97.384 24.776C96.832 25.256 96.18 25.628 95.428 25.892C94.676 26.156 93.852 26.288 92.956 26.288ZM106.444 26.288C105.004 26.288 103.752 25.948 102.688 25.268C101.624 24.588 100.9 23.672 100.516 22.52L103.156 21.272C103.492 21.976 103.948 22.528 104.524 22.928C105.1 23.328 105.74 23.528 106.444 23.528C106.956 23.528 107.348 23.424 107.62 23.216C107.892 23.008 108.028 22.72 108.028 22.352C108.028 22.16 107.98 21.996 107.884 21.86C107.788 21.724 107.644 21.6 107.452 21.488C107.26 21.376 107.02 21.28 106.732 21.2L104.5 20.576C103.428 20.272 102.604 19.78 102.028 19.1C101.452 18.42 101.164 17.616 101.164 16.688C101.164 15.872 101.372 15.16 101.788 14.552C102.204 13.944 102.788 13.468 103.54 13.124C104.292 12.78 105.156 12.608 106.132 12.608C107.412 12.608 108.536 12.908 109.504 13.508C110.472 14.108 111.156 14.952 111.556 16.04L108.892 17.288C108.7 16.744 108.352 16.308 107.848 15.98C107.344 15.652 106.772 15.488 106.132 15.488C105.668 15.488 105.304 15.584 105.04 15.776C104.776 15.968 104.644 16.232 104.644 16.568C104.644 16.744 104.692 16.904 104.788 17.048C104.884 17.192 105.04 17.32 105.256 17.432C105.472 17.544 105.74 17.648 106.06 17.744L108.148 18.368C109.236 18.688 110.068 19.172 110.644 19.82C111.22 20.468 111.508 21.264 111.508 22.208C111.508 23.024 111.296 23.736 110.872 24.344C110.448 24.952 109.86 25.428 109.108 25.772C108.356 26.116 107.468 26.288 106.444 26.288ZM118.804 26.288C117.364 26.288 116.112 25.948 115.048 25.268C113.984 24.588 113.26 23.672 112.876 22.52L115.516 21.272C115.852 21.976 116.308 22.528 116.884 22.928C117.46 23.328 118.1 23.528 118.804 23.528C119.316 23.528 119.708 23.424 119.98 23.216C120.252 23.008 120.388 22.72 120.388 22.352C120.388 22.16 120.34 21.996 120.244 21.86C120.148 21.724 120.004 21.6 119.812 21.488C119.62 21.376 119.38 21.28 119.092 21.2L116.86 20.576C115.788 20.272 114.964 19.78 114.388 19.1C113.812 18.42 113.524 17.616 113.524 16.688C113.524 15.872 113.732 15.16 114.148 14.552C114.564 13.944 115.148 13.468 115.9 13.124C116.652 12.78 117.516 12.608 118.492 12.608C119.772 12.608 120.896 12.908 121.864 13.508C122.832 14.108 123.516 14.952 123.916 16.04L121.252 17.288C121.06 16.744 120.712 16.308 120.208 15.98C119.704 15.652 119.132 15.488 118.492 15.488C118.028 15.488 117.664 15.584 117.4 15.776C117.136 15.968 117.004 16.232 117.004 16.568C117.004 16.744 117.052 16.904 117.148 17.048C117.244 17.192 117.4 17.32 117.616 17.432C117.832 17.544 118.1 17.648 118.42 17.744L120.508 18.368C121.596 18.688 122.428 19.172 123.004 19.82C123.58 20.468 123.868 21.264 123.868 22.208C123.868 23.024 123.656 23.736 123.232 24.344C122.808 24.952 122.22 25.428 121.468 25.772C120.716 26.116 119.828 26.288 118.804 26.288ZM132.532 26.288C131.236 26.288 130.056 25.992 128.992 25.4C127.928 24.808 127.08 23.996 126.448 22.964C125.816 21.932 125.5 20.76 125.5 19.448C125.5 18.12 125.816 16.944 126.448 15.92C127.08 14.896 127.928 14.088 128.992 13.496C130.056 12.904 131.236 12.608 132.532 12.608C133.828 12.608 135.004 12.904 136.06 13.496C137.116 14.088 137.96 14.896 138.592 15.92C139.224 16.944 139.54 18.12 139.54 19.448C139.54 20.76 139.224 21.932 138.592 22.964C137.96 23.996 137.116 24.808 136.06 25.4C135.004 25.992 133.828 26.288 132.532 26.288ZM132.532 23.048C133.188 23.048 133.76 22.896 134.248 22.592C134.736 22.288 135.12 21.864 135.4 21.32C135.68 20.776 135.82 20.152 135.82 19.448C135.82 18.744 135.68 18.124 135.4 17.588C135.12 17.052 134.736 16.628 134.248 16.316C133.76 16.004 133.188 15.848 132.532 15.848C131.876 15.848 131.3 16.004 130.804 16.316C130.308 16.628 129.92 17.052 129.64 17.588C129.36 18.124 129.22 18.744 129.22 19.448C129.22 20.152 129.36 20.776 129.64 21.32C129.92 21.864 130.308 22.288 130.804 22.592C131.3 22.896 131.876 23.048 132.532 23.048ZM141.652 26V12.896H145.012V16.04L144.772 15.584C145.06 14.48 145.536 13.732 146.2 13.34C146.864 12.948 147.652 12.752 148.564 12.752H149.332V15.872H148.204C147.324 15.872 146.612 16.14 146.068 16.676C145.524 17.212 145.252 17.968 145.252 18.944V26H141.652ZM155.5 26V8.12H159.1L165.796 17H164.116L170.62 8.12H174.22V26H170.5V12.224L171.988 12.56L165.1 21.44H164.62L157.972 12.56L159.22 12.224V26H155.5ZM183.436 26.288C182.044 26.288 180.836 25.98 179.812 25.364C178.788 24.748 177.996 23.92 177.436 22.88C176.876 21.84 176.596 20.688 176.596 19.424C176.596 18.112 176.888 16.944 177.472 15.92C178.056 14.896 178.844 14.088 179.836 13.496C180.828 12.904 181.948 12.608 183.196 12.608C184.236 12.608 185.156 12.772 185.956 13.1C186.756 13.428 187.432 13.888 187.984 14.48C188.536 15.072 188.956 15.756 189.244 16.532C189.532 17.308 189.676 18.152 189.676 19.064C189.676 19.32 189.664 19.572 189.64 19.82C189.616 20.068 189.572 20.28 189.508 20.456H179.692V17.816H187.468L185.764 19.064C185.924 18.376 185.916 17.764 185.74 17.228C185.564 16.692 185.256 16.268 184.816 15.956C184.376 15.644 183.836 15.488 183.196 15.488C182.572 15.488 182.036 15.64 181.588 15.944C181.14 16.248 180.804 16.696 180.58 17.288C180.356 17.88 180.268 18.6 180.316 19.448C180.252 20.184 180.34 20.832 180.58 21.392C180.82 21.952 181.188 22.388 181.684 22.7C182.18 23.012 182.78 23.168 183.484 23.168C184.124 23.168 184.672 23.04 185.128 22.784C185.584 22.528 185.94 22.176 186.196 21.728L189.076 23.096C188.82 23.736 188.416 24.296 187.864 24.776C187.312 25.256 186.66 25.628 185.908 25.892C185.156 26.156 184.332 26.288 183.436 26.288Z" fill="#4648D4"/>
</svg>
